<svg version="1.1" id="Camada_1" xmlns="http://www.w3.org/2000/svg" xmlns:xlink="http://www.w3.org/1999/xlink" x="0px" y="0px" viewBox="0 0 500 500" style="enable-background:new 0 0 500 500;" xml:space="preserve" width="60" height="60">
				<g>
					<path class="st0" d="M250,26.9C126.8,26.9,26.9,126.8,26.9,250S126.8,473.1,250,473.1S473.1,373.2,473.1,250S373.2,26.9,250,26.9z
						 M373.4,330.4h-37.9v-90.5c0-20.3-11.4-36.4-32.6-36.4c-21.8,0.3-33.5,17-33.8,31.7v95.3h-37.9v-90.5c0-20.6-11.7-36.4-32.9-36.4
						c-21.5,0.3-33.5,16.7-33.8,31.7v95.3h-37.9V173.2h35.8v17.3c9.9-11.9,26.3-20.9,47.5-20.9c25.1,0,40.9,9.3,49.9,25.7
						c8.7-14.6,26.6-25.7,53.2-25.7c39.1,0,60.3,27.8,60.3,63.3V330.4z" fill="#f97316"></path>
				</g>
				</svg>